<?xml version="1.0" encoding="UTF-8" standalone="no"?>
<svg
   xmlns:dc="http://purl.org/dc/elements/1.1/"
   xmlns:cc="http://creativecommons.org/ns#"
   xmlns:rdf="http://www.w3.org/1999/02/22-rdf-syntax-ns#"
   xmlns:svg="http://www.w3.org/2000/svg"
   xmlns="http://www.w3.org/2000/svg"
   version="1.1"
   id="svg7051"
   viewBox="0 0 17.653029 26.412117"
   height="7.4540863mm"
   width="4.9820771mm">
  <defs
     id="defs7053" />
  <metadata
     id="metadata7056">
    <rdf:RDF>
      <cc:Work
         rdf:about="">
        <dc:format>image/svg+xml</dc:format>
        <dc:type
           rdf:resource="http://purl.org/dc/dcmitype/StillImage" />
        <dc:title></dc:title>
      </cc:Work>
    </rdf:RDF>
  </metadata>
  <g
     transform="translate(-440.17349,-414.15615)"
     id="layer1">
    <path
       id="path7605-6"
       d="m 448.89358,414.15615 -3.64725,8.28086 -0.9579,-2.17514 -3.52731,8.00802 0.12742,0 a 8.8265225,8.8265225 0 0 0 -0.71505,3.47186 8.8265225,8.8265225 0 0 0 8.82651,8.82651 8.8265225,8.8265225 0 0 0 8.82651,-8.82651 8.8265225,8.8265225 0 0 0 -1.28019,-4.56317 l -3.04761,-6.91671 -0.95792,2.17514 -3.64721,-8.28086 z"
       style="opacity:1;fill:#ff2929;fill-opacity:0.91764706;fill-rule:nonzero;stroke:#000000;stroke-width:0;stroke-linecap:round;stroke-linejoin:round;stroke-miterlimit:4;stroke-dasharray:none;stroke-dashoffset:0;stroke-opacity:1" />
    <path
       id="path7672-3"
       d="m 447.0302,428.12086 c -1.42264,0 -2.57592,1.15327 -2.57592,2.5759 6.9e-4,0.45481 0.12248,0.90122 0.35199,1.29389 l -0.0376,-0.002 c 0,0 0.0595,0.0645 0.0983,0.10654 0.15214,0.23405 0.34132,0.44182 0.56012,0.61519 1.10345,1.22521 3.86981,3.62365 3.64555,3.99742 -0.30304,0.50508 3.74267,-4.18961 3.74267,-4.18961 l -0.0241,-0.002 c 0.48262,-0.48253 0.75404,-1.13684 0.75466,-1.8193 0,-1.42264 -1.15328,-2.57591 -2.57592,-2.57591 -0.76045,7e-5 -1.48201,0.33615 -1.97138,0.91822 -0.48869,-0.58122 -1.20891,-0.91721 -1.96825,-0.91822 z"
       style="opacity:1;fill:#ffffff;fill-opacity:0.91764706;fill-rule:nonzero;stroke:none;stroke-width:0.40000001;stroke-linecap:round;stroke-linejoin:round;stroke-miterlimit:4;stroke-dasharray:none;stroke-dashoffset:0;stroke-opacity:1" />
  </g>
</svg>
