<?xml version="1.0" encoding="UTF-8" standalone="no"?>
<svg
   xmlns:dc="http://purl.org/dc/elements/1.1/"
   xmlns:cc="http://creativecommons.org/ns#"
   xmlns:rdf="http://www.w3.org/1999/02/22-rdf-syntax-ns#"
   xmlns:svg="http://www.w3.org/2000/svg"
   xmlns="http://www.w3.org/2000/svg"
   version="1.1"
   id="svg7113"
   viewBox="0 0 272.49624 200.75488"
   height="56.65749mm"
   width="76.904495mm">
  <defs
     id="defs7115" />
  <metadata
     id="metadata7118">
    <rdf:RDF>
      <cc:Work
         rdf:about="">
        <dc:format>image/svg+xml</dc:format>
        <dc:type
           rdf:resource="http://purl.org/dc/dcmitype/StillImage" />
        <dc:title></dc:title>
      </cc:Work>
    </rdf:RDF>
  </metadata>
  <g
     transform="translate(-111.3233,-557.60732)"
     id="layer1">
    <g
       id="g7122"
       transform="translate(40.025918,549.68154)">
      <g
         style="opacity:0.33300003"
         id="g7108"
         transform="matrix(-0.707337,0,0,0.707337,379.3051,-2.3646596)">
        <path
           id="path7110"
           d="m 242,90.425781 c 0,0 -3.35839,19.375419 -12.55078,15.486329 -6.85028,1.81168 -11.87891,8.01386 -11.87891,15.44922 l 0,60 c 0,8.864 7.136,16 16,16 l 82.41016,0 11.58984,20.07422 11.58985,-20.07422 11.26953,0 c 8.86399,0 16,-7.136 16,-16 l 0,-60 c 0,-8.22979 -6.15442,-14.96043 -14.12891,-15.88281 -13.5,0 -19.92578,-10.302739 -19.92578,-10.302739 -1.26829,7.474099 2.65594,10.704879 -4.60742,10.185549 l -13.53516,0 C 308.69819,99.323148 296.42305,98.021818 302,84.175781 l -12.23242,21.185549 -5.53516,0 L 260.25,73.925781 c 2.49875,10.34996 7.54223,24.597289 -0.48242,29.685549 -1.30786,1.00482 -2.90404,1.64924 -5.53516,1 0,0 -15.48242,-1.18555 -12.23242,-14.185549 z"
           style="opacity:1;fill:#ff2a2a;fill-opacity:0.91764706;fill-rule:nonzero;stroke:none;stroke-width:0.40000001;stroke-linecap:round;stroke-linejoin:round;stroke-miterlimit:4;stroke-dasharray:none;stroke-dashoffset:0;stroke-opacity:1" />
        <g
           id="g7112">
          <circle
             style="opacity:1;fill:#ffffff;fill-opacity:0.91764706;fill-rule:nonzero;stroke:none;stroke-width:0.40000001;stroke-linecap:round;stroke-linejoin:round;stroke-miterlimit:4;stroke-dasharray:none;stroke-dashoffset:0;stroke-opacity:1"
             id="circle7114"
             cx="259"
             cy="152.36221"
             r="6" />
          <circle
             r="6"
             cy="152.36221"
             cx="281"
             id="circle7116"
             style="opacity:1;fill:#ffffff;fill-opacity:0.91764706;fill-rule:nonzero;stroke:none;stroke-width:0.40000001;stroke-linecap:round;stroke-linejoin:round;stroke-miterlimit:4;stroke-dasharray:none;stroke-dashoffset:0;stroke-opacity:1" />
          <circle
             style="opacity:1;fill:#ffffff;fill-opacity:0.91764706;fill-rule:nonzero;stroke:none;stroke-width:0.40000001;stroke-linecap:round;stroke-linejoin:round;stroke-miterlimit:4;stroke-dasharray:none;stroke-dashoffset:0;stroke-opacity:1"
             id="circle7118"
             cx="303"
             cy="152.36221"
             r="6" />
          <circle
             r="6"
             cy="152.36221"
             cx="325"
             id="circle7120"
             style="opacity:1;fill:#ffffff;fill-opacity:0.91764706;fill-rule:nonzero;stroke:none;stroke-width:0.40000001;stroke-linecap:round;stroke-linejoin:round;stroke-miterlimit:4;stroke-dasharray:none;stroke-dashoffset:0;stroke-opacity:1" />
        </g>
      </g>
      <g
         transform="translate(-71.454492,-66)"
         id="g7096">
        <path
           style="opacity:1;fill:#ff2a2a;fill-opacity:0.91764706;fill-rule:nonzero;stroke:none;stroke-width:0.40000001;stroke-linecap:round;stroke-linejoin:round;stroke-miterlimit:4;stroke-dasharray:none;stroke-dashoffset:0;stroke-opacity:1"
           d="m 242,90.425781 c 0,0 -3.35839,19.375419 -12.55078,15.486329 -6.85028,1.81168 -11.87891,8.01386 -11.87891,15.44922 l 0,60 c 0,8.864 7.136,16 16,16 l 82.41016,0 11.58984,20.07422 11.58985,-20.07422 11.26953,0 c 8.86399,0 16,-7.136 16,-16 l 0,-60 c 0,-8.22979 -6.15442,-14.96043 -14.12891,-15.88281 -13.5,0 -19.92578,-10.302739 -19.92578,-10.302739 -1.26829,7.474099 2.65594,10.704879 -4.60742,10.185549 l -13.53516,0 C 308.69819,99.323148 296.42305,98.021818 302,84.175781 l -12.23242,21.185549 -5.53516,0 L 260.25,73.925781 c 2.49875,10.34996 7.54223,24.597289 -0.48242,29.685549 -1.30786,1.00482 -2.90404,1.64924 -5.53516,1 0,0 -15.48242,-1.18555 -12.23242,-14.185549 z"
           id="rect7036" />
        <g
           id="g7051">
          <circle
             r="6"
             cy="152.36221"
             cx="259"
             id="path7041"
             style="opacity:1;fill:#ffffff;fill-opacity:0.91764706;fill-rule:nonzero;stroke:none;stroke-width:0.40000001;stroke-linecap:round;stroke-linejoin:round;stroke-miterlimit:4;stroke-dasharray:none;stroke-dashoffset:0;stroke-opacity:1" />
          <circle
             style="opacity:1;fill:#ffffff;fill-opacity:0.91764706;fill-rule:nonzero;stroke:none;stroke-width:0.40000001;stroke-linecap:round;stroke-linejoin:round;stroke-miterlimit:4;stroke-dasharray:none;stroke-dashoffset:0;stroke-opacity:1"
             id="circle7043"
             cx="281"
             cy="152.36221"
             r="6" />
          <circle
             r="6"
             cy="152.36221"
             cx="303"
             id="circle7045"
             style="opacity:1;fill:#ffffff;fill-opacity:0.91764706;fill-rule:nonzero;stroke:none;stroke-width:0.40000001;stroke-linecap:round;stroke-linejoin:round;stroke-miterlimit:4;stroke-dasharray:none;stroke-dashoffset:0;stroke-opacity:1" />
          <circle
             style="opacity:1;fill:#ffffff;fill-opacity:0.91764706;fill-rule:nonzero;stroke:none;stroke-width:0.40000001;stroke-linecap:round;stroke-linejoin:round;stroke-miterlimit:4;stroke-dasharray:none;stroke-dashoffset:0;stroke-opacity:1"
             id="circle7047"
             cx="325"
             cy="152.36221"
             r="6" />
        </g>
      </g>
    </g>
    <g
       style="font-style:normal;font-weight:normal;font-size:40px;line-height:125%;font-family:sans-serif;letter-spacing:2.51999998px;word-spacing:0px;fill:#333333;fill-opacity:1;stroke:none;stroke-width:1px;stroke-linecap:butt;stroke-linejoin:miter;stroke-opacity:1"
       id="text7084"
       transform="translate(142.05037,509.64393)">
      <path
         d="m -19.887069,222.19827 q -1.64,0 -2.48,0.76 -0.8,0.76 -0.8,2.76 l 0,2.2 5,0 q 0.68,0 1.12,0.44 0.44,0.44 0.44,1.12 0,0.64 -0.44,1.12 -0.44,0.44 -1.12,0.44 l -5,0 0,15.68 q 0,0.76 -0.56,1.28 -0.52,0.52 -1.28,0.52 -0.76,0 -1.28,-0.52 -0.52,-0.52 -0.52,-1.28 l 0,-15.68 -2.36,0 q -0.64,0 -1.12,-0.44 -0.44,-0.48 -0.44,-1.12 0,-0.68 0.44,-1.12 0.48,-0.44 1.12,-0.44 l 2.36,0 0,-2.32 q 0,-2.4 0.84,-3.92 0.88,-1.56 2.24,-2.24 1.4,-0.72 2.92,-0.72 1.88,0 3.48,0.8 0.4,0.2 0.64,0.6 0.28,0.36 0.28,0.8 0,0.6 -0.44,1.08 -0.44,0.44 -1.04,0.44 -0.44,0 -0.92,-0.12 -0.96,-0.12 -1.08,-0.12 z m 8.84,-3.28 q 0.8,0 1.3199998,0.52 0.52,0.52 0.52,1.32 l 0,25.96 q 0,0.76 -0.56,1.28 -0.5199998,0.52 -1.2799998,0.52 -0.76,0 -1.28,-0.52 -0.52,-0.52 -0.52,-1.28 l 0,-25.96 q 0,-0.76 0.52,-1.28 0.52,-0.56 1.28,-0.56 z"
         style="font-style:normal;font-variant:normal;font-weight:normal;font-stretch:normal;font-family:'Varela Round';-inkscape-font-specification:'Varela Round';letter-spacing:10px;fill:#333333;fill-opacity:1"
         id="path7091" />
      <path
         d="m 13.134181,227.51827 q 2.76,0 4.64,1.12 1.92,1.12 2.8,2.92 0.92,1.76 0.92,3.84 l 0,11.32 q 0,0.76 -0.56,1.28 -0.52,0.52 -1.28,0.52 -0.76,0 -1.28,-0.52 -0.52,-0.52 -0.52,-1.28 l 0,-1.04 q -2.96,3.04 -7.52,3.04 -1.7599999,0 -3.2799999,-0.72 -1.48,-0.72 -2.36,-2.08 -0.88,-1.4 -0.88,-3.2 0,-2.96 2.32,-4.72 2.36,-1.76 6.8799999,-1.76 l 4.84,0 0,-0.32 q 0,-2.64 -1.32,-3.8 -1.28,-1.16 -4.04,-1.16 -1.52,0 -2.7199999,0.24 -1.16,0.24 -2.6,0.72 -0.32,0.08 -0.52,0.08 -0.6,0 -1.04,-0.44 -0.44,-0.44 -0.44,-1.08 0,-1.08 1.04,-1.52 3.4,-1.44 6.9199999,-1.44 z m -1.44,18 q 1.76,0 3.4,-0.84 1.64,-0.88 2.76,-2.16 l 0,-3.36 -4.36,0 q -6.0399999,0 -6.0399999,3.16 0,1.44 0.96,2.32 1,0.88 3.2799999,0.88 z"
         style="font-style:normal;font-variant:normal;font-weight:normal;font-stretch:normal;font-family:'Varela Round';-inkscape-font-specification:'Varela Round';letter-spacing:10px;fill:#333333;fill-opacity:1"
         id="path7093" />
      <path
         d="m 61.561681,227.51827 q 2.24,0 3.72,1.12 1.52,1.12 2.24,2.88 0.72,1.76 0.72,3.68 l 0,11.52 q 0,0.76 -0.56,1.28 -0.52,0.52 -1.28,0.52 -0.76,0 -1.28,-0.52 -0.52,-0.52 -0.52,-1.28 l 0,-10.8 q 0,-2.6 -0.92,-3.8 -0.92,-1.24 -3.16,-1.24 -2.04,0 -3.4,1.08 -1.32,1.04 -2.36,2.76 l 0,12 q 0,0.76 -0.56,1.28 -0.52,0.52 -1.28,0.52 -0.76,0 -1.28,-0.52 -0.52,-0.52 -0.52,-1.28 l 0,-10.8 q 0,-2.6 -0.92,-3.8 -0.92,-1.24 -3.16,-1.24 -2.04,0 -3.4,1.08 -1.32,1.04 -2.36,2.76 l 0,12 q 0,0.76 -0.56,1.28 -0.52,0.52 -1.28,0.52 -0.76,0 -1.28,-0.52 -0.52,-0.52 -0.52,-1.28 l 0,-17.16 q 0,-0.76 0.52,-1.28 0.52,-0.56 1.28,-0.56 0.76,0 1.28,0.56 0.56,0.52 0.56,1.28 l 0,1.64 q 1.12,-1.6 2.68,-2.64 1.6,-1.04 4.12,-1.04 2.24,0 3.84,1.2 1.6,1.2 2.28,2.92 2.48,-4.12 7.36,-4.12 z"
         style="font-style:normal;font-variant:normal;font-weight:normal;font-stretch:normal;font-family:'Varela Round';-inkscape-font-specification:'Varela Round';letter-spacing:10px;fill:#333333;fill-opacity:1"
         id="path7095" />
      <path
         d="m 100.03856,243.91827 q 0.64,0 1.12,0.44 0.48,0.44 0.48,1.12 0,0.88 -1.04,1.48 -1.560004,0.88 -3.080004,1.32 -1.52,0.44 -3.92,0.44 -4.88,0 -7.64,-2.76 -2.72,-2.8 -2.72,-7.84 0,-2.84 1.04,-5.24 1.04,-2.4 3.2,-3.88 2.16,-1.48 5.32,-1.48 2.96,0 5.12,1.4 2.160004,1.36 3.280004,3.68 1.12,2.28 1.12,5 0,0.76 -0.52,1.28 -0.48,0.52 -1.32,0.52 l -13.560004,0 q 0.32,2.8 2.08,4.36 1.76,1.56 4.92,1.56 1.68,0 2.92,-0.32 1.28,-0.32 2.48,-0.92 0.32,-0.16 0.720004,-0.16 z m -7.240004,-13.32 q -1.36,0 -2.68,0.64 -1.32,0.6 -2.2,1.92 -0.88,1.32 -1,3.28 l 11.8,0 q -0.12,-1.96 -1.04,-3.28 -0.88,-1.32 -2.2,-1.92 -1.32,-0.64 -2.68,-0.64 z"
         style="font-style:normal;font-variant:normal;font-weight:normal;font-stretch:normal;font-family:'Varela Round';-inkscape-font-specification:'Varela Round';letter-spacing:10px;fill:#333333;fill-opacity:1"
         id="path7097" />
      <path
         d="m 127.21106,245.15827 q 0.56,0 1,0.44 0.44,0.4 0.44,1 0,0.92 -0.92,1.4 -1.56,0.72 -3.32,0.72 -5.84,0 -5.84,-5.28 l 0,-12.4 -2.84,0 q -0.32,0 -0.56,-0.2 -0.2,-0.24 -0.2,-0.56 0,-0.4 0.36,-0.68 l 5.44,-5.32 q 0.36,-0.36 0.68,-0.36 0.32,0 0.52,0.24 0.24,0.24 0.24,0.56 l 0,3.2 4.52,0 q 0.68,0 1.12,0.44 0.44,0.44 0.44,1.12 0,0.64 -0.44,1.12 -0.44,0.44 -1.12,0.44 l -4.52,0 0,12.08 q 0,1.56 0.72,2 0.76,0.4 1.88,0.4 0.8,0 1.6,-0.24 0.16,-0.04 0.32,-0.08 0.2,-0.04 0.48,-0.04 z"
         style="font-style:normal;font-variant:normal;font-weight:normal;font-stretch:normal;font-family:'Varela Round';-inkscape-font-specification:'Varela Round';letter-spacing:10px;fill:#333333;fill-opacity:1"
         id="path7099" />
      <path
         d="m 150.32168,227.51827 q 2.76,0 4.64,1.12 1.92,1.12 2.8,2.92 0.92,1.76 0.92,3.84 l 0,11.32 q 0,0.76 -0.56,1.28 -0.52,0.52 -1.28,0.52 -0.76,0 -1.28,-0.52 -0.52,-0.52 -0.52,-1.28 l 0,-1.04 q -2.96,3.04 -7.52,3.04 -1.76,0 -3.28,-0.72 -1.48,-0.72 -2.36,-2.08 -0.88,-1.4 -0.88,-3.2 0,-2.96 2.32,-4.72 2.36,-1.76 6.88,-1.76 l 4.84,0 0,-0.32 q 0,-2.64 -1.32,-3.8 -1.28,-1.16 -4.04,-1.16 -1.52,0 -2.72,0.24 -1.16,0.24 -2.6,0.72 -0.32,0.08 -0.52,0.08 -0.6,0 -1.04,-0.44 -0.44,-0.44 -0.44,-1.08 0,-1.08 1.04,-1.52 3.4,-1.44 6.92,-1.44 z m -1.44,18 q 1.76,0 3.4,-0.84 1.64,-0.88 2.76,-2.16 l 0,-3.36 -4.36,0 q -6.04,0 -6.04,3.16 0,1.44 0.96,2.32 1,0.88 3.28,0.88 z"
         style="font-style:normal;font-variant:normal;font-weight:normal;font-stretch:normal;font-family:'Varela Round';-inkscape-font-specification:'Varela Round';letter-spacing:10px;fill:#333333;fill-opacity:1"
         id="path7101" />
      <path
         d="m 176.94918,218.91827 q 0.8,0 1.32,0.52 0.52,0.52 0.52,1.32 l 0,25.96 q 0,0.76 -0.56,1.28 -0.52,0.52 -1.28,0.52 -0.76,0 -1.28,-0.52 -0.52,-0.52 -0.52,-1.28 l 0,-25.96 q 0,-0.76 0.52,-1.28 0.52,-0.56 1.28,-0.56 z"
         style="font-style:normal;font-variant:normal;font-weight:normal;font-stretch:normal;font-family:'Varela Round';-inkscape-font-specification:'Varela Round';letter-spacing:10px;fill:#333333;fill-opacity:1"
         id="path7103" />
      <path
         d="m 212.37418,245.67827 q 0.4,0.52 0.4,1.08 0,0.8 -0.52,1.28 -0.52,0.48 -1.32,0.48 -0.4,0 -0.8,-0.2 -0.4,-0.2 -0.68,-0.56 l -6.88,-9.36 -3.48,3.16 0,5.16 q 0,0.76 -0.56,1.28 -0.52,0.52 -1.28,0.52 -0.76,0 -1.28,-0.52 -0.52,-0.52 -0.52,-1.28 l 0,-25.96 q 0,-0.76 0.52,-1.28 0.52,-0.56 1.28,-0.56 0.76,0 1.28,0.56 0.56,0.52 0.56,1.28 l 0,16.36 9.52,-8.8 q 0.6,-0.52 1.2,-0.52 0.92,0 1.32,0.52 0.44,0.52 0.44,1.24 0,0.68 -0.68,1.36 l -5.76,5.16 7.24,9.6 z"
         style="font-style:normal;font-variant:normal;font-weight:normal;font-stretch:normal;font-family:'Varela Round';-inkscape-font-specification:'Varela Round';letter-spacing:10px;fill:#333333;fill-opacity:1"
         id="path7105" />
      <path
         d="m 229.72918,233.63827 q 0,1.2 1.12,1.76 1.12,0.56 3.48,1.08 2.36,0.6 3.84,1.2 1.48,0.56 2.52,1.8 1.08,1.24 1.08,3.32 0,2.56 -2.04,4.24 -2,1.68 -5.68,1.68 -4,0 -7.28,-1.8 -0.68,-0.48 -0.68,-1.32 0,-0.64 0.44,-1.12 0.44,-0.48 1.12,-0.48 0.36,0 0.72,0.16 1.28,0.56 2.56,0.88 1.28,0.32 2.88,0.32 4.44,0 4.44,-2.84 0,-0.92 -1.04,-1.4 -1,-0.48 -3.32,-1.08 -2.36,-0.56 -3.92,-1.16 -1.52,-0.6 -2.64,-1.8 -1.08,-1.24 -1.08,-3.24 0,-2.8 2,-4.56 2.04,-1.76 5.8,-1.76 3.08,0 5.8,1 0.56,0.16 0.84,0.6 0.32,0.44 0.32,0.92 0,0.64 -0.48,1.12 -0.44,0.48 -1.12,0.48 -0.2,0 -0.52,-0.08 -2.32,-0.72 -4.56,-0.72 -2.16,0 -3.4,0.8 -1.2,0.76 -1.2,2 z"
         style="font-style:normal;font-variant:normal;font-weight:normal;font-stretch:normal;font-family:'Varela Round';-inkscape-font-specification:'Varela Round';letter-spacing:10px;fill:#333333;fill-opacity:1"
         id="path7107" />
    </g>
  </g>
</svg>
