<?xml version="1.0" encoding="UTF-8" standalone="no"?>
<svg
   xmlns:dc="http://purl.org/dc/elements/1.1/"
   xmlns:cc="http://creativecommons.org/ns#"
   xmlns:rdf="http://www.w3.org/1999/02/22-rdf-syntax-ns#"
   xmlns:svg="http://www.w3.org/2000/svg"
   xmlns="http://www.w3.org/2000/svg"
   version="1.1"
   id="svg7625"
   viewBox="0 0 259.9056 44.366281"
   height="12.521151mm"
   width="73.351135mm">
  <defs
     id="defs7627" />
  <metadata
     id="metadata7630">
    <rdf:RDF>
      <cc:Work
         rdf:about="">
        <dc:format>image/svg+xml</dc:format>
        <dc:type
           rdf:resource="http://purl.org/dc/dcmitype/StillImage" />
        <dc:title></dc:title>
      </cc:Work>
    </rdf:RDF>
  </metadata>
  <g
     transform="translate(-182.03063,-790.9159)"
     id="layer1">
    <g
       id="layer1-3"
       transform="matrix(1.67977,0,0,1.67977,-557.35958,95.22883)">
      <path
         style="opacity:1;fill:#ff2929;fill-opacity:0.91764706;fill-rule:nonzero;stroke:#000000;stroke-width:0;stroke-linecap:round;stroke-linejoin:round;stroke-miterlimit:4;stroke-dasharray:none;stroke-dashoffset:0;stroke-opacity:1"
         d="m 448.89358,414.15615 -3.64725,8.28086 -0.9579,-2.17514 -3.52731,8.00802 0.12742,0 a 8.8265225,8.8265225 0 0 0 -0.71505,3.47186 8.8265225,8.8265225 0 0 0 8.82651,8.82651 8.8265225,8.8265225 0 0 0 8.82651,-8.82651 8.8265225,8.8265225 0 0 0 -1.28019,-4.56317 l -3.04761,-6.91671 -0.95792,2.17514 -3.64721,-8.28086 z"
         id="path7605-6" />
      <path
         style="opacity:1;fill:#ffffff;fill-opacity:0.91764706;fill-rule:nonzero;stroke:none;stroke-width:0.40000001;stroke-linecap:round;stroke-linejoin:round;stroke-miterlimit:4;stroke-dasharray:none;stroke-dashoffset:0;stroke-opacity:1"
         d="m 447.0302,428.12086 c -1.42264,0 -2.57592,1.15327 -2.57592,2.5759 6.9e-4,0.45481 0.12248,0.90122 0.35199,1.29389 l -0.0376,-0.002 c 0,0 0.0595,0.0645 0.0983,0.10654 0.15214,0.23405 0.34132,0.44182 0.56012,0.61519 1.10345,1.22521 3.86981,3.62365 3.64555,3.99742 -0.30304,0.50508 3.74267,-4.18961 3.74267,-4.18961 l -0.0241,-0.002 c 0.48262,-0.48253 0.75404,-1.13684 0.75466,-1.8193 0,-1.42264 -1.15328,-2.57591 -2.57592,-2.57591 -0.76045,7e-5 -1.48201,0.33615 -1.97138,0.91822 -0.48869,-0.58122 -1.20891,-0.91721 -1.96825,-0.91822 z"
         id="path7672-3" />
    </g>
    <g
       id="text8183"
       style="font-style:normal;font-weight:normal;font-size:40px;line-height:125%;font-family:sans-serif;letter-spacing:2.51999998px;word-spacing:-21.45000076px;fill:#000000;fill-opacity:1;stroke:none;stroke-width:1px;stroke-linecap:butt;stroke-linejoin:miter;stroke-opacity:1">
      <path
         id="path8188"
         style="font-style:normal;font-variant:normal;font-weight:normal;font-stretch:normal;font-family:'Varela Round';-inkscape-font-specification:'Varela Round';fill:#1a1a1a"
         d="m 235.6,804.24218 q -1.64,0 -2.48,0.76 -0.8,0.76 -0.8,2.76 l 0,2.2 5,0 q 0.68,0 1.12,0.44 0.44,0.44 0.44,1.12 0,0.64 -0.44,1.12 -0.44,0.44 -1.12,0.44 l -5,0 0,15.68 q 0,0.76 -0.56,1.28 -0.52,0.52 -1.28,0.52 -0.76,0 -1.28,-0.52 -0.52,-0.52 -0.52,-1.28 l 0,-15.68 -2.36,0 q -0.64,0 -1.12,-0.44 -0.44,-0.48 -0.44,-1.12 0,-0.68 0.44,-1.12 0.48,-0.44 1.12,-0.44 l 2.36,0 0,-2.32 q 0,-2.4 0.84,-3.92 0.88,-1.56 2.24,-2.24 1.4,-0.72 2.92,-0.72 1.88,0 3.48,0.8 0.4,0.2 0.64,0.6 0.28,0.36 0.28,0.8 0,0.6 -0.44,1.08 -0.44,0.44 -1.04,0.44 -0.44,0 -0.92,-0.12 -0.96,-0.12 -1.08,-0.12 z m 8.84,-3.28 q 0.8,0 1.32,0.52 0.52,0.52 0.52,1.32 l 0,25.96 q 0,0.76 -0.56,1.28 -0.52,0.52 -1.28,0.52 -0.76,0 -1.28,-0.52 -0.52,-0.52 -0.52,-1.28 l 0,-25.96 q 0,-0.76 0.52,-1.28 0.52,-0.56 1.28,-0.56 z" />
      <path
         id="path8190"
         style="font-style:normal;font-variant:normal;font-weight:normal;font-stretch:normal;font-family:'Varela Round';-inkscape-font-specification:'Varela Round';fill:#1a1a1a"
         d="m 265.66125,809.56218 q 2.76,0 4.64,1.12 1.92,1.12 2.8,2.92 0.92,1.76 0.92,3.84 l 0,11.32 q 0,0.76 -0.56,1.28 -0.52,0.52 -1.28,0.52 -0.76,0 -1.28,-0.52 -0.52,-0.52 -0.52,-1.28 l 0,-1.04 q -2.96,3.04 -7.52,3.04 -1.76,0 -3.28,-0.72 -1.48,-0.72 -2.36,-2.08 -0.88,-1.4 -0.88,-3.2 0,-2.96 2.32,-4.72 2.36,-1.76 6.88,-1.76 l 4.84,0 0,-0.32 q 0,-2.64 -1.32,-3.8 -1.28,-1.16 -4.04,-1.16 -1.52,0 -2.72,0.24 -1.16,0.24 -2.6,0.72 -0.32,0.08 -0.52,0.08 -0.6,0 -1.04,-0.44 -0.44,-0.44 -0.44,-1.08 0,-1.08 1.04,-1.52 3.4,-1.44 6.92,-1.44 z m -1.44,18 q 1.76,0 3.4,-0.84 1.64,-0.88 2.76,-2.16 l 0,-3.36 -4.36,0 q -6.04,0 -6.04,3.16 0,1.44 0.96,2.32 1,0.88 3.28,0.88 z" />
      <path
         id="path8192"
         style="font-style:normal;font-variant:normal;font-weight:normal;font-stretch:normal;font-family:'Varela Round';-inkscape-font-specification:'Varela Round';fill:#1a1a1a"
         d="m 306.60875,809.56218 q 2.24,0 3.72,1.12 1.52,1.12 2.24,2.88 0.72,1.76 0.72,3.68 l 0,11.52 q 0,0.76 -0.56,1.28 -0.52,0.52 -1.28,0.52 -0.76,0 -1.28,-0.52 -0.52,-0.52 -0.52,-1.28 l 0,-10.8 q 0,-2.6 -0.92,-3.8 -0.92,-1.24 -3.16,-1.24 -2.04,0 -3.4,1.08 -1.32,1.04 -2.36,2.76 l 0,12 q 0,0.76 -0.56,1.28 -0.52,0.52 -1.28,0.52 -0.76,0 -1.28,-0.52 -0.52,-0.52 -0.52,-1.28 l 0,-10.8 q 0,-2.6 -0.92,-3.8 -0.92,-1.24 -3.16,-1.24 -2.04,0 -3.4,1.08 -1.32,1.04 -2.36,2.76 l 0,12 q 0,0.76 -0.56,1.28 -0.52,0.52 -1.28,0.52 -0.76,0 -1.28,-0.52 -0.52,-0.52 -0.52,-1.28 l 0,-17.16 q 0,-0.76 0.52,-1.28 0.52,-0.56 1.28,-0.56 0.76,0 1.28,0.56 0.56,0.52 0.56,1.28 l 0,1.64 q 1.12,-1.6 2.68,-2.64 1.6,-1.04 4.12,-1.04 2.24,0 3.84,1.2 1.6,1.2 2.28,2.92 2.48,-4.12 7.36,-4.12 z" />
      <path
         id="path8194"
         style="font-style:normal;font-variant:normal;font-weight:normal;font-stretch:normal;font-family:'Varela Round';-inkscape-font-specification:'Varela Round';fill:#1a1a1a"
         d="m 337.60563,825.96218 q 0.64,0 1.12,0.44 0.48,0.44 0.48,1.12 0,0.88 -1.04,1.48 -1.56,0.88 -3.08,1.32 -1.52,0.44 -3.92,0.44 -4.88,0 -7.64,-2.76 -2.72,-2.8 -2.72,-7.84 0,-2.84 1.04,-5.24 1.04,-2.4 3.2,-3.88 2.16,-1.48 5.32,-1.48 2.96,0 5.12,1.4 2.16,1.36 3.28,3.68 1.12,2.28 1.12,5 0,0.76 -0.52,1.28 -0.48,0.52 -1.32,0.52 l -13.56,0 q 0.32,2.8 2.08,4.36 1.76,1.56 4.92,1.56 1.68,0 2.92,-0.32 1.28,-0.32 2.48,-0.92 0.32,-0.16 0.72,-0.16 z m -7.24,-13.32 q -1.36,0 -2.68,0.64 -1.32,0.6 -2.2,1.92 -0.88,1.32 -1,3.28 l 11.8,0 q -0.12,-1.96 -1.04,-3.28 -0.88,-1.32 -2.2,-1.92 -1.32,-0.64 -2.68,-0.64 z" />
      <path
         id="path8196"
         style="font-style:normal;font-variant:normal;font-weight:normal;font-stretch:normal;font-family:'Varela Round';-inkscape-font-specification:'Varela Round';fill:#1a1a1a"
         d="m 357.29812,827.20218 q 0.56,0 1,0.44 0.44,0.4 0.44,1 0,0.92 -0.92,1.4 -1.56,0.72 -3.32,0.72 -5.84,0 -5.84,-5.28 l 0,-12.4 -2.84,0 q -0.32,0 -0.56,-0.2 -0.2,-0.24 -0.2,-0.56 0,-0.4 0.36,-0.68 l 5.44,-5.32 q 0.36,-0.36 0.68,-0.36 0.32,0 0.52,0.24 0.24,0.24 0.24,0.56 l 0,3.2 4.52,0 q 0.68,0 1.12,0.44 0.44,0.44 0.44,1.12 0,0.64 -0.44,1.12 -0.44,0.44 -1.12,0.44 l -4.52,0 0,12.08 q 0,1.56 0.72,2 0.76,0.4 1.88,0.4 0.8,0 1.6,-0.24 0.16,-0.04 0.32,-0.08 0.2,-0.04 0.48,-0.04 z" />
      <path
         id="path8198"
         style="font-style:normal;font-variant:normal;font-weight:normal;font-stretch:normal;font-family:'Varela Round';-inkscape-font-specification:'Varela Round';fill:#1a1a1a"
         d="m 372.92875,809.56218 q 2.76,0 4.64,1.12 1.92,1.12 2.8,2.92 0.92,1.76 0.92,3.84 l 0,11.32 q 0,0.76 -0.56,1.28 -0.52,0.52 -1.28,0.52 -0.76,0 -1.28,-0.52 -0.52,-0.52 -0.52,-1.28 l 0,-1.04 q -2.96,3.04 -7.52,3.04 -1.76,0 -3.28,-0.72 -1.48,-0.72 -2.36,-2.08 -0.88,-1.4 -0.88,-3.2 0,-2.96 2.32,-4.72 2.36,-1.76 6.88,-1.76 l 4.84,0 0,-0.32 q 0,-2.64 -1.32,-3.8 -1.28,-1.16 -4.04,-1.16 -1.52,0 -2.72,0.24 -1.16,0.24 -2.6,0.72 -0.32,0.08 -0.52,0.08 -0.6,0 -1.04,-0.44 -0.44,-0.44 -0.44,-1.08 0,-1.08 1.04,-1.52 3.4,-1.44 6.92,-1.44 z m -1.44,18 q 1.76,0 3.4,-0.84 1.64,-0.88 2.76,-2.16 l 0,-3.36 -4.36,0 q -6.04,0 -6.04,3.16 0,1.44 0.96,2.32 1,0.88 3.28,0.88 z" />
      <path
         id="path8200"
         style="font-style:normal;font-variant:normal;font-weight:normal;font-stretch:normal;font-family:'Varela Round';-inkscape-font-specification:'Varela Round';fill:#1a1a1a"
         d="m 392.07625,800.96218 q 0.8,0 1.32,0.52 0.52,0.52 0.52,1.32 l 0,25.96 q 0,0.76 -0.56,1.28 -0.52,0.52 -1.28,0.52 -0.76,0 -1.28,-0.52 -0.52,-0.52 -0.52,-1.28 l 0,-25.96 q 0,-0.76 0.52,-1.28 0.52,-0.56 1.28,-0.56 z" />
      <path
         id="path8202"
         style="font-style:normal;font-variant:normal;font-weight:normal;font-stretch:normal;font-family:'Varela Round';-inkscape-font-specification:'Varela Round';fill:#1a1a1a"
         d="m 420.02125,827.72218 q 0.4,0.52 0.4,1.08 0,0.8 -0.52,1.28 -0.52,0.48 -1.32,0.48 -0.4,0 -0.8,-0.2 -0.4,-0.2 -0.68,-0.56 l -6.88,-9.36 -3.48,3.16 0,5.16 q 0,0.76 -0.56,1.28 -0.52,0.52 -1.28,0.52 -0.76,0 -1.28,-0.52 -0.52,-0.52 -0.52,-1.28 l 0,-25.96 q 0,-0.76 0.52,-1.28 0.52,-0.56 1.28,-0.56 0.76,0 1.28,0.56 0.56,0.52 0.56,1.28 l 0,16.36 9.52,-8.8 q 0.6,-0.52 1.2,-0.52 0.92,0 1.32,0.52 0.44,0.52 0.44,1.24 0,0.68 -0.68,1.36 l -5.76,5.16 7.24,9.6 z" />
      <path
         id="path8204"
         style="font-style:normal;font-variant:normal;font-weight:normal;font-stretch:normal;font-family:'Varela Round';-inkscape-font-specification:'Varela Round';fill:#1a1a1a"
         d="m 429.89624,815.68218 q 0,1.2 1.12,1.76 1.12,0.56 3.48,1.08 2.36,0.6 3.84,1.2 1.48,0.56 2.52,1.8 1.08,1.24 1.08,3.32 0,2.56 -2.04,4.24 -2,1.68 -5.68,1.68 -4,0 -7.28,-1.8 -0.68,-0.48 -0.68,-1.32 0,-0.64 0.44,-1.12 0.44,-0.48 1.12,-0.48 0.36,0 0.72,0.16 1.28,0.56 2.56,0.88 1.28,0.32 2.88,0.32 4.44,0 4.44,-2.84 0,-0.92 -1.04,-1.4 -1,-0.48 -3.32,-1.08 -2.36,-0.56 -3.92,-1.16 -1.52,-0.6 -2.64,-1.8 -1.08,-1.24 -1.08,-3.24 0,-2.8 2,-4.56 2.04,-1.76 5.8,-1.76 3.08,0 5.8,1 0.56,0.16 0.84,0.6 0.32,0.44 0.32,0.92 0,0.64 -0.48,1.12 -0.44,0.48 -1.12,0.48 -0.2,0 -0.52,-0.08 -2.32,-0.72 -4.56,-0.72 -2.16,0 -3.4,0.8 -1.2,0.76 -1.2,2 z" />
    </g>
  </g>
</svg>
