<?xml version="1.0" encoding="UTF-8" standalone="no"?>
<svg
   xmlns:dc="http://purl.org/dc/elements/1.1/"
   xmlns:cc="http://creativecommons.org/ns#"
   xmlns:rdf="http://www.w3.org/1999/02/22-rdf-syntax-ns#"
   xmlns:svg="http://www.w3.org/2000/svg"
   xmlns="http://www.w3.org/2000/svg"
   xmlns:sodipodi="http://sodipodi.sourceforge.net/DTD/sodipodi-0.dtd"
   xmlns:inkscape="http://www.inkscape.org/namespaces/inkscape"
   version="1.1"
   id="svg2"
   viewBox="0 0 219.56101 192.66142"
   height="54.373333mm"
   width="61.964996mm"
   inkscape:version="0.91 r13725"
   sodipodi:docname="logo_v3.svg">
  <sodipodi:namedview
     pagecolor="#ffffff"
     bordercolor="#666666"
     borderopacity="1"
     objecttolerance="10"
     gridtolerance="10"
     guidetolerance="10"
     inkscape:pageopacity="0"
     inkscape:pageshadow="2"
     inkscape:window-width="1280"
     inkscape:window-height="994"
     id="namedview7057"
     showgrid="false"
     inkscape:zoom="1"
     inkscape:cx="109.78051"
     inkscape:cy="96.330708"
     inkscape:window-x="1366"
     inkscape:window-y="0"
     inkscape:window-maximized="1"
     inkscape:current-layer="svg2" />
  <defs
     id="defs4" />
  <metadata
     id="metadata7">
    <rdf:RDF>
      <cc:Work
         rdf:about="">
        <dc:format>image/svg+xml</dc:format>
        <dc:type
           rdf:resource="http://purl.org/dc/dcmitype/StillImage" />
        <dc:title></dc:title>
      </cc:Work>
    </rdf:RDF>
  </metadata>
  <g
     id="g7113">
    <g
       transform="translate(-97.765002,-7.925781)"
       id="g7122">
      <g
         transform="matrix(-0.707337,0,0,0.707337,379.3051,-2.3646596)"
         id="g7108"
         style="opacity:0.33300003">
        <path
           style="opacity:1;fill:#ff2a2a;fill-opacity:0.91764706;fill-rule:nonzero;stroke:none;stroke-width:0.40000001;stroke-linecap:round;stroke-linejoin:round;stroke-miterlimit:4;stroke-dasharray:none;stroke-dashoffset:0;stroke-opacity:1"
           d="m 242,90.425781 c 0,0 -3.35839,19.375419 -12.55078,15.486329 -6.85028,1.81168 -11.87891,8.01386 -11.87891,15.44922 l 0,60 c 0,8.864 7.136,16 16,16 l 82.41016,0 11.58984,20.07422 11.58985,-20.07422 11.26953,0 c 8.86399,0 16,-7.136 16,-16 l 0,-60 c 0,-8.22979 -6.15442,-14.96043 -14.12891,-15.88281 -13.5,0 -19.92578,-10.302739 -19.92578,-10.302739 -1.26829,7.474099 2.65594,10.704879 -4.60742,10.185549 l -13.53516,0 C 308.69819,99.323148 296.42305,98.021818 302,84.175781 l -12.23242,21.185549 -5.53516,0 L 260.25,73.925781 c 2.49875,10.34996 7.54223,24.597289 -0.48242,29.685549 -1.30786,1.00482 -2.90404,1.64924 -5.53516,1 0,0 -15.48242,-1.18555 -12.23242,-14.185549 z"
           id="path7110"
           inkscape:connector-curvature="0" />
        <g
           id="g7112">
          <circle
             r="6"
             cy="152.36221"
             cx="259"
             id="circle7114"
             style="opacity:1;fill:#ffffff;fill-opacity:0.91764706;fill-rule:nonzero;stroke:none;stroke-width:0.40000001;stroke-linecap:round;stroke-linejoin:round;stroke-miterlimit:4;stroke-dasharray:none;stroke-dashoffset:0;stroke-opacity:1" />
          <circle
             style="opacity:1;fill:#ffffff;fill-opacity:0.91764706;fill-rule:nonzero;stroke:none;stroke-width:0.40000001;stroke-linecap:round;stroke-linejoin:round;stroke-miterlimit:4;stroke-dasharray:none;stroke-dashoffset:0;stroke-opacity:1"
             id="circle7116"
             cx="281"
             cy="152.36221"
             r="6" />
          <circle
             r="6"
             cy="152.36221"
             cx="303"
             id="circle7118"
             style="opacity:1;fill:#ffffff;fill-opacity:0.91764706;fill-rule:nonzero;stroke:none;stroke-width:0.40000001;stroke-linecap:round;stroke-linejoin:round;stroke-miterlimit:4;stroke-dasharray:none;stroke-dashoffset:0;stroke-opacity:1" />
          <circle
             style="opacity:1;fill:#ffffff;fill-opacity:0.91764706;fill-rule:nonzero;stroke:none;stroke-width:0.40000001;stroke-linecap:round;stroke-linejoin:round;stroke-miterlimit:4;stroke-dasharray:none;stroke-dashoffset:0;stroke-opacity:1"
             id="circle7120"
             cx="325"
             cy="152.36221"
             r="6" />
        </g>
      </g>
      <g
         id="g7096"
         transform="translate(-71.454492,-66)">
        <path
           id="rect7036"
           d="m 242,90.425781 c 0,0 -3.35839,19.375419 -12.55078,15.486329 -6.85028,1.81168 -11.87891,8.01386 -11.87891,15.44922 l 0,60 c 0,8.864 7.136,16 16,16 l 82.41016,0 11.58984,20.07422 11.58985,-20.07422 11.26953,0 c 8.86399,0 16,-7.136 16,-16 l 0,-60 c 0,-8.22979 -6.15442,-14.96043 -14.12891,-15.88281 -13.5,0 -19.92578,-10.302739 -19.92578,-10.302739 -1.26829,7.474099 2.65594,10.704879 -4.60742,10.185549 l -13.53516,0 C 308.69819,99.323148 296.42305,98.021818 302,84.175781 l -12.23242,21.185549 -5.53516,0 L 260.25,73.925781 c 2.49875,10.34996 7.54223,24.597289 -0.48242,29.685549 -1.30786,1.00482 -2.90404,1.64924 -5.53516,1 0,0 -15.48242,-1.18555 -12.23242,-14.185549 z"
           style="opacity:1;fill:#ff2a2a;fill-opacity:0.91764706;fill-rule:nonzero;stroke:none;stroke-width:0.40000001;stroke-linecap:round;stroke-linejoin:round;stroke-miterlimit:4;stroke-dasharray:none;stroke-dashoffset:0;stroke-opacity:1"
           inkscape:connector-curvature="0" />
        <g
           id="g7051">
          <circle
             style="opacity:1;fill:#ffffff;fill-opacity:0.91764706;fill-rule:nonzero;stroke:none;stroke-width:0.40000001;stroke-linecap:round;stroke-linejoin:round;stroke-miterlimit:4;stroke-dasharray:none;stroke-dashoffset:0;stroke-opacity:1"
             id="path7041"
             cx="259"
             cy="152.36221"
             r="6" />
          <circle
             r="6"
             cy="152.36221"
             cx="281"
             id="circle7043"
             style="opacity:1;fill:#ffffff;fill-opacity:0.91764706;fill-rule:nonzero;stroke:none;stroke-width:0.40000001;stroke-linecap:round;stroke-linejoin:round;stroke-miterlimit:4;stroke-dasharray:none;stroke-dashoffset:0;stroke-opacity:1" />
          <circle
             style="opacity:1;fill:#ffffff;fill-opacity:0.91764706;fill-rule:nonzero;stroke:none;stroke-width:0.40000001;stroke-linecap:round;stroke-linejoin:round;stroke-miterlimit:4;stroke-dasharray:none;stroke-dashoffset:0;stroke-opacity:1"
             id="circle7045"
             cx="303"
             cy="152.36221"
             r="6" />
          <circle
             r="6"
             cy="152.36221"
             cx="325"
             id="circle7047"
             style="opacity:1;fill:#ffffff;fill-opacity:0.91764706;fill-rule:nonzero;stroke:none;stroke-width:0.40000001;stroke-linecap:round;stroke-linejoin:round;stroke-miterlimit:4;stroke-dasharray:none;stroke-dashoffset:0;stroke-opacity:1" />
        </g>
      </g>
    </g>
    <g
       id="text7104"
       style="font-style:normal;font-weight:normal;font-size:40px;line-height:125%;font-family:sans-serif;letter-spacing:10px;word-spacing:0px;fill:#000000;fill-opacity:1;stroke:none;stroke-width:1px;stroke-linecap:butt;stroke-linejoin:miter;stroke-opacity:1">
      <path
         id="path7096"
         style="font-style:normal;font-variant:normal;font-weight:normal;font-stretch:normal;font-size:35px;font-family:'Varela Round';-inkscape-font-specification:'Varela Round';fill:#333333"
         d="m 9.6949999,166.23642 q 1.9250001,0 3.3250001,0.91 1.435,0.91 2.17,2.485 0.77,1.575 0.77,3.465 l 0,9.94 q 0,0.665 -0.49,1.12 -0.455,0.455 -1.12,0.455 -0.665,0 -1.12,-0.455 -0.455,-0.455 -0.455,-1.12 l 0,-9.59 q 0,-4.27 -3.8500001,-4.27 -1.75,0 -3.15,0.91 -1.365,0.91 -2.59,2.45 l 0,10.5 q 0,0.665 -0.49,1.12 -0.455,0.455 -1.12,0.455 -0.665,0 -1.12,-0.455 -0.45500000490417,-0.455 -0.45500000490417,-1.12 l 0,-22.715 q 0,-0.665 0.45500000490417,-1.12 0.455,-0.49 1.12,-0.49 0.665,0 1.12,0.49 0.49,0.455 0.49,1.12 l 0,9.135 q 1.33,-1.47 2.87,-2.345 1.54,-0.875 3.64,-0.875 z" />
      <path
         id="path7098"
         style="font-style:normal;font-variant:normal;font-weight:normal;font-stretch:normal;font-size:35px;font-family:'Varela Round';-inkscape-font-specification:'Varela Round';fill:#333333"
         d="m 39.203125,166.23642 q 2.66,0 4.69,1.155 2.03,1.155 3.15,3.29 1.12,2.1 1.12,4.83 0,2.73 -1.12,4.865 -1.12,2.1 -3.15,3.255 -2.03,1.155 -4.69,1.155 -2.695,0 -4.725,-1.155 -2.03,-1.155 -3.15,-3.255 -1.085,-2.135 -1.085,-4.865 0,-2.73 1.085,-4.83 1.12,-2.135 3.15,-3.29 2.03,-1.155 4.725,-1.155 z m 0,15.645 q 1.435,0 2.73,-0.665 1.33,-0.665 2.17,-2.1 0.875,-1.435 0.875,-3.64 0,-2.17 -0.875,-3.605 -0.84,-1.435 -2.17,-2.065 -1.295,-0.665 -2.73,-0.665 -1.47,0 -2.8,0.665 -1.295,0.63 -2.135,2.065 -0.84,1.435 -0.84,3.605 0,2.205 0.84,3.64 0.84,1.435 2.135,2.1 1.33,0.665 2.8,0.665 z" />
      <path
         id="path7100"
         style="font-style:normal;font-variant:normal;font-weight:normal;font-stretch:normal;font-size:35px;font-family:'Varela Round';-inkscape-font-specification:'Varela Round';fill:#333333"
         d="m 71.166172,181.67142 q 0.49,0 0.875,0.385 0.385,0.35 0.385,0.875 0,0.805 -0.805,1.225 -1.365,0.63 -2.905,0.63 -5.11,0 -5.11,-4.62 l 0,-10.85 -2.485,0 q -0.28,0 -0.49,-0.175 -0.175,-0.21 -0.175,-0.49 0,-0.35 0.315,-0.595 l 4.76,-4.655 q 0.315,-0.315 0.595,-0.315 0.28,0 0.455,0.21 0.21,0.21 0.21,0.49 l 0,2.8 3.955,0 q 0.595,0 0.98,0.385 0.385,0.385 0.385,0.98 0,0.56 -0.385,0.98 -0.385,0.385 -0.98,0.385 l -3.955,0 0,10.57 q 0,1.365 0.63,1.75 0.665,0.35 1.645,0.35 0.7,0 1.4,-0.21 0.14,-0.035 0.28,-0.07 0.175,-0.035 0.42,-0.035 z" />
      <path
         id="path7102"
         style="font-style:normal;font-variant:normal;font-weight:normal;font-stretch:normal;font-size:35px;font-family:'Varela Round';-inkscape-font-specification:'Varela Round';fill:#333333"
         d="m 93.302969,184.78642 q -2.17,0 -4.13,-1.085 -1.925,-1.12 -3.15,-3.22 -1.19,-2.135 -1.19,-4.97 0,-2.835 1.19,-4.935 1.225,-2.135 3.15,-3.22 1.96,-1.12 4.13,-1.12 3.43,0 5.985,2.66 l 0,-0.91 q 0,-0.665 0.455,-1.12 0.490001,-0.455 1.155001,-0.455 0.665,0 1.12,0.455 0.455,0.455 0.455,1.12 l 0,23.065 q 0,0.665 -0.455,1.12 -0.455,0.49 -1.12,0.49 -0.665,0 -1.155001,-0.455 -0.455,-0.455 -0.455,-1.155 l 0,-8.925 q -2.555,2.66 -5.985,2.66 z m 0.455,-15.575 q -2.59,0 -4.165,1.645 -1.575,1.645 -1.575,4.655 0,3.01 1.575,4.655 1.575,1.645 4.165,1.645 1.61,0 3.01,-0.7 1.435,-0.735 2.52,-1.925 l 0,-7.35 q -1.085,-1.19 -2.52,-1.89 -1.4,-0.735 -3.01,-0.735 z" />
      <path
         id="path7104"
         style="font-style:normal;font-variant:normal;font-weight:normal;font-stretch:normal;font-size:35px;font-family:'Varela Round';-inkscape-font-specification:'Varela Round';fill:#333333"
         d="m 124.12305,184.78642 q -1.925,0 -3.36,-0.91 -1.4,-0.91 -2.17,-2.485 -0.735,-1.575 -0.735,-3.465 l 0,-9.94 q 0,-0.665 0.455,-1.12 0.49,-0.455 1.155,-0.455 0.665,0 1.12,0.455 0.455,0.455 0.455,1.12 l 0,9.59 q 0,4.27 3.85,4.27 1.75,0 3.115,-0.91 1.4,-0.91 2.625,-2.45 l 0,-10.5 q 0,-0.665 0.455,-1.12 0.49,-0.455 1.155,-0.455 0.665,0 1.12,0.455 0.455,0.455 0.455,1.12 l 0,15.015 q 0,0.665 -0.455,1.155 -0.455,0.455 -1.12,0.455 -0.665,0 -1.155,-0.455 -0.455,-0.49 -0.455,-1.155 l 0,-1.435 q -1.33,1.47 -2.87,2.345 -1.54,0.875 -3.64,0.875 z" />
      <path
         id="path7106"
         style="font-style:normal;font-variant:normal;font-weight:normal;font-stretch:normal;font-size:35px;font-family:'Varela Round';-inkscape-font-specification:'Varela Round';fill:#333333"
         d="m 157.20117,166.23642 q 2.66,0 4.69,1.155 2.03,1.155 3.15,3.29 1.12,2.1 1.12,4.83 0,2.73 -1.12,4.865 -1.12,2.1 -3.15,3.255 -2.03,1.155 -4.69,1.155 -2.695,0 -4.725,-1.155 -2.03,-1.155 -3.15,-3.255 -1.085,-2.135 -1.085,-4.865 0,-2.73 1.085,-4.83 1.12,-2.135 3.15,-3.29 2.03,-1.155 4.725,-1.155 z m 0,15.645 q 1.435,0 2.73,-0.665 1.33,-0.665 2.17,-2.1 0.875,-1.435 0.875,-3.64 0,-2.17 -0.875,-3.605 -0.84,-1.435 -2.17,-2.065 -1.295,-0.665 -2.73,-0.665 -1.47,0 -2.8,0.665 -1.295,0.63 -2.135,2.065 -0.84,1.435 -0.84,3.605 0,2.205 0.84,3.64 0.84,1.435 2.135,2.1 1.33,0.665 2.8,0.665 z" />
      <path
         id="path7108"
         style="font-style:normal;font-variant:normal;font-weight:normal;font-stretch:normal;font-size:35px;font-family:'Varela Round';-inkscape-font-specification:'Varela Round';fill:#333333"
         d="m 189.16422,181.67142 q 0.49,0 0.875,0.385 0.385,0.35 0.385,0.875 0,0.805 -0.805,1.225 -1.365,0.63 -2.905,0.63 -5.11,0 -5.11,-4.62 l 0,-10.85 -2.485,0 q -0.28,0 -0.49,-0.175 -0.175,-0.21 -0.175,-0.49 0,-0.35 0.315,-0.595 l 4.76,-4.655 q 0.315,-0.315 0.595,-0.315 0.28,0 0.455,0.21 0.21,0.21 0.21,0.49 l 0,2.8 3.955,0 q 0.595,0 0.98,0.385 0.385,0.385 0.385,0.98 0,0.56 -0.385,0.98 -0.385,0.385 -0.98,0.385 l -3.955,0 0,10.57 q 0,1.365 0.63,1.75 0.665,0.35 1.645,0.35 0.7,0 1.4,-0.21 0.14,-0.035 0.28,-0.07 0.175,-0.035 0.42,-0.035 z" />
      <path
         id="path7111"
         style="font-style:normal;font-variant:normal;font-weight:normal;font-stretch:normal;font-size:35px;font-family:'Varela Round';-inkscape-font-specification:'Varela Round';fill:#333333"
         d="m 217.56602,180.58642 q 0.56,0 0.98,0.385 0.42,0.385 0.42,0.98 0,0.77 -0.91,1.295 -1.365,0.77 -2.695,1.155 -1.33,0.385 -3.43,0.385 -4.27,0 -6.685,-2.415 -2.38,-2.45 -2.38,-6.86 0,-2.485 0.91,-4.585 0.91,-2.1 2.8,-3.395 1.89,-1.295 4.655,-1.295 2.59,0 4.48,1.225 1.89,1.19 2.87,3.22 0.98,1.995 0.98,4.375 0,0.665 -0.455,1.12 -0.42,0.455 -1.155,0.455 l -11.865,0 q 0.28,2.45 1.82,3.815 1.54,1.365 4.305,1.365 1.47,0 2.555,-0.28 1.12,-0.28 2.17,-0.805 0.28,-0.14 0.63,-0.14 z m -6.335,-11.655 q -1.19,0 -2.345,0.56 -1.155,0.525 -1.925,1.68 -0.77,1.155 -0.875,2.87 l 10.325,0 q -0.105,-1.715 -0.91,-2.87 -0.77,-1.155 -1.925,-1.68 -1.155,-0.56 -2.345,-0.56 z" />
    </g>
  </g>
</svg>
