<?xml version="1.0" encoding="UTF-8" standalone="no"?>
<svg
   xmlns:dc="http://purl.org/dc/elements/1.1/"
   xmlns:cc="http://creativecommons.org/ns#"
   xmlns:rdf="http://www.w3.org/1999/02/22-rdf-syntax-ns#"
   xmlns:svg="http://www.w3.org/2000/svg"
   xmlns="http://www.w3.org/2000/svg"
   width="15.591311mm"
   height="23.327421mm"
   viewBox="0 0 55.244804 82.656218"
   id="svg7055"
   version="1.1">
  <defs
     id="defs7057" />
  <metadata
     id="metadata7060">
    <rdf:RDF>
      <cc:Work
         rdf:about="">
        <dc:format>image/svg+xml</dc:format>
        <dc:type
           rdf:resource="http://purl.org/dc/dcmitype/StillImage" />
        <dc:title></dc:title>
      </cc:Work>
    </rdf:RDF>
  </metadata>
  <path
     id="path7605-6"
     d="M 27.289364,2.0153927e-6 15.875363,25.914798 12.877633,19.107739 1.838982,44.168687 l 0.398758,0 A 27.622437,27.622437 0 0 0 4.9999999e-6,55.033808 27.622437,27.622437 0 0 0 27.622403,82.656211 27.622437,27.622437 0 0 0 55.244801,55.033808 27.622437,27.622437 0 0 0 51.23847,40.753453 L 41.701032,19.107739 38.703239,25.914798 27.289364,2.0153927e-6 Z"
     style="opacity:1;fill:#ff2929;fill-opacity:0.91764706;fill-rule:nonzero;stroke:#000000;stroke-width:0;stroke-linecap:round;stroke-linejoin:round;stroke-miterlimit:4;stroke-dasharray:none;stroke-dashoffset:0;stroke-opacity:1" />
  <path
     style="opacity:1;fill:#ff2a2a;fill-opacity:0.91764706;fill-rule:nonzero;stroke:#000000;stroke-width:0;stroke-linecap:round;stroke-linejoin:round;stroke-miterlimit:4;stroke-dasharray:none;stroke-dashoffset:0;stroke-opacity:1"
     d="m 27.402182,18.000001 -7.54748,17.136094 -1.982241,-4.50115 -7.299281,16.571489 0.263678,0 A 18.265267,18.265267 0 0 0 9.357161,54.390968 18.265267,18.265267 0 0 0 27.622403,72.656213 18.265267,18.265267 0 0 0 45.887645,54.390968 18.265267,18.265267 0 0 0 43.238468,44.948119 l -6.306607,-14.313174 -1.982283,4.50115 -7.547396,-17.136094 z"
     id="path7072" />
  <text
     id="text7068"
     y="62.18605"
     x="19.792961"
     style="font-style:normal;font-weight:normal;font-size:25.62828636px;line-height:125%;font-family:sans-serif;letter-spacing:1.61458206px;word-spacing:-13.74316788px;fill:#000000;fill-opacity:1;stroke:none;stroke-width:1px;stroke-linecap:butt;stroke-linejoin:miter;stroke-opacity:1"
     xml:space="preserve"><tspan
       style="font-style:normal;font-variant:normal;font-weight:normal;font-stretch:normal;font-family:'Varela Round';-inkscape-font-specification:'Varela Round';fill:#ffffff"
       y="62.18605"
       x="19.792961"
       id="tspan7070">#</tspan></text>
</svg>
